<svg xmlns="http://www.w3.org/2000/svg" viewBox="0 0 1366 768"><filter id="b"><feGaussianBlur stdDeviation="12" /></filter><path fill="#637d9a" d="M0 0h1366v763H0z"/><g filter="url(#b)" transform="translate(2.7 2.7) scale(5.33594)"><ellipse fill-opacity=".5" rx="1" ry="1" transform="rotate(176 65.4 67.1) scale(220.21891 40.54205)"/><ellipse fill="#ecffff" fill-opacity=".5" rx="1" ry="1" transform="rotate(174.5 78 25) scale(188.27488 31.99793)"/><ellipse fill="#329dff" fill-opacity=".5" rx="1" ry="1" transform="rotate(-97.4 33.8 -13.7) scale(21.82076 187.83658)"/><ellipse fill="#e4ffff" fill-opacity=".5" rx="1" ry="1" transform="matrix(132.35681 -20.25344 2.99943 19.60137 133.4 42.3)"/><ellipse fill="#001" fill-opacity=".5" cx="33" cy="110" rx="62" ry="24"/><ellipse fill="#0a0005" fill-opacity=".5" rx="1" ry="1" transform="matrix(10.3673 -37.38324 41.15874 11.41433 248.4 113)"/><ellipse fill="#fff" fill-opacity=".5" rx="1" ry="1" transform="rotate(158.7 127.3 25.2) scale(32.42395 9.48896)"/><ellipse fill="#558bc6" fill-opacity=".5" rx="1" ry="1" transform="matrix(31.0537 -10.64077 5.21803 15.22814 106.6 79.9)"/><path fill="#0a020f" fill-opacity=".5" d="M58 129h143v14H58z"/><path fill="#12060e" fill-opacity=".5" d="M175 83l32-9-30 50z"/><ellipse fill="#4b69a4" fill-opacity=".5" rx="1" ry="1" transform="rotate(146.7 34.5 75.6) scale(24.68474 13.9599)"/><path fill="#3f6fab" fill-opacity=".5" d="M22 75.1l35 24.4-59.4 9.7 119.3-45.3z"/><ellipse fill="#3a68a2" fill-opacity=".5" rx="1" ry="1" transform="matrix(88.88535 -10.59894 .37903 3.17867 203.9 54)"/><ellipse fill="#2251bd" fill-opacity=".5" rx="1" ry="1" transform="matrix(146.13612 -26.0864 2.797 15.66877 43.2 0)"/><path fill="#0a0000" fill-opacity=".5" d="M119.9 87.6l30 18-7.8 12.8-30-18z"/><ellipse fill="#060000" fill-opacity=".5" rx="1" ry="1" transform="rotate(65.8 -53.8 113.6) scale(25.93554 19.29238)"/><path fill="#aad4fa" fill-opacity=".5" d="M206 71.2l-45 15.6-45.9 1 18-4.4z"/><ellipse fill-opacity=".5" cy="134" rx="17" ry="17"/><ellipse fill="#75c3ec" fill-opacity=".5" rx="1" ry="1" transform="rotate(162.6 16.8 24.2) scale(119.37122 10.39462)"/><ellipse fill="#eefaff" fill-opacity=".5" cx="148" cy="45" rx="64" ry="11"/><path fill="#b0bee6" fill-opacity=".5" d="M285.5 82.7l-64.7 5.6-.3-3 64.7-5.6z"/><ellipse fill="#3a4d8f" fill-opacity=".5" rx="1" ry="1" transform="matrix(7.68851 5.44377 -14.12632 19.95132 38 135.5)"/><path fill="#2d3a6a" fill-opacity=".5" d="M90 76L52 96 38 85z"/><path fill="#6481b9" fill-opacity=".5" d="M59 88L14 99l31 6z"/><path fill="#fff" fill-opacity=".5" d="M255 7l-31 8 29-31z"/><path fill="#58aae2" fill-opacity=".5" d="M209.2-.1l3.7 11.4-58 18.8-3.8-11.4z"/><path fill="#eaf7ff" fill-opacity=".5" d="M203.7 49.6L75 47l-86.2 32.8 55.3-7z"/><path fill-opacity=".5" d="M230 63h26v4h-26z"/><path fill="#80b0f8" fill-opacity=".5" d="M194 99h8v11h-8z"/><path fill="#6387bf" fill-opacity=".5" d="M149 101h11v16h-11z"/><ellipse fill="#1e1615" fill-opacity=".5" cx="255" cy="51" rx="1" ry="99"/><path fill="#6fa2d6" fill-opacity=".5" d="M129 100l-31 20-4-10z"/><path fill="#94bde6" fill-opacity=".5" d="M82 89h31v7H82z"/><path fill="#292c43" fill-opacity=".5" d="M169.3 85.7l38.5-15-27.6 62.1-36 25.2z"/><ellipse fill="#3d5895" fill-opacity=".5" cx="193" cy="119" rx="35" ry="3"/><ellipse fill="#ded9e9" fill-opacity=".5" rx="1" ry="1" transform="matrix(-39.97843 3.54232 -1.48883 -16.80288 220 32.2)"/><ellipse fill="#a1d9f7" fill-opacity=".5" rx="1" ry="1" transform="matrix(-1.57216 -10.78087 66.05426 -9.63259 116 31.4)"/><path fill="#03123b" fill-opacity=".5" d="M114.8 73.2l.2 1-139.8 24.6-.2-1z"/><path fill="#8cb7e2" fill-opacity=".5" d="M172 58h20v23h-20z"/><ellipse fill="#b7c6eb" fill-opacity=".5" cx="238" cy="70" rx="24" ry="2"/><path fill="#0b0300" fill-opacity=".5" d="M229 131l42 22-2-93z"/><path fill="#335a96" fill-opacity=".5" d="M13 94.5l-23.1-11 7-4.3 56.7-7.7z"/><path fill="#181016" fill-opacity=".5" d="M115 90l31 1-4 45z"/><path fill="#2e3d4b" fill-opacity=".5" d="M0 65l-.5 38.4 1.8-34.2-3.1-85.1z"/><path fill="#0b0403" fill-opacity=".5" d="M181 78l-8 8 26 2z"/><ellipse fill="#43587a" fill-opacity=".5" rx="1" ry="1" transform="matrix(-.46329 -2.79419 31.56631 -5.2338 255.8 46.7)"/><path fill="#77afdd" fill-opacity=".5" d="M191 65l-54-4-39 22z"/><path fill="#0b0f1c" fill-opacity=".5" d="M51.2 129.7l45.9-11 15.6 3.6 7.9-7.5z"/><path fill="#110905" fill-opacity=".5" d="M138 125l-61 16 77 17z"/><path fill="#4e5e9c" fill-opacity=".5" d="M234 102h7v12h-7z"/><path fill="#142d5d" fill-opacity=".5" d="M93.9 86.6l52-10.1.2 1-52 10z"/><path fill="#19181e" fill-opacity=".5" d="M192 95l-39 13 39 12z"/><path fill="#0c0909" fill-opacity=".5" d="M228.9 99.6l-28.7 2.6 16.1 19.4 50-44.8z"/><path fill="#485580" fill-opacity=".5" d="M200 77h38v8h-38z"/><path fill="#0c0809" fill-opacity=".5" d="M25.6 112.6l-27.6-2 129.8-16.5-64 24.2z"/><ellipse fill="#54a5dd" fill-opacity=".5" rx="1" ry="1" transform="matrix(-2.09592 -6.0934 78.05476 -26.84814 28.4 35.6)"/><path fill="#6581af" fill-opacity=".5" d="M160.5 67l139-17v1l-139 17z"/><ellipse fill="#a3b5ce" fill-opacity=".5" rx="1" ry="1" transform="matrix(-.13933 -3.311 38.00303 -1.59923 245.8 18.7)"/><path fill="#040a27" fill-opacity=".5" d="M221 65h19v3h-19z"/><path fill="#7386a6" fill-opacity=".5" d="M149.7 36l43 57-54.3-2.9h52z"/><path fill="#3e5181" fill-opacity=".5" d="M85 137l23-22-27 11z"/><ellipse fill="#7299c8" fill-opacity=".5" cx="160" cy="103" rx="13" ry="2"/><path fill="#7d88a8" fill-opacity=".5" d="M234 94.9l-7.1 7-2.8-2.8 7-7z"/><path fill="#c6e9fb" fill-opacity=".5" d="M166.1 34.7L-5.5 80l9.8-18 78.6-26.4z"/><path fill="#212c4f" fill-opacity=".5" d="M242.4 119.5l-21.8-2-71.5 14.6 40.3 6z"/><path fill="#fff" fill-opacity=".5" d="M271 5l-2-19-47 24z"/><path fill="#5c7aaa" fill-opacity=".5" d="M37.6 103.6l.6-11.5L52 86.6 67.8 88z"/><ellipse fill="#171a37" fill-opacity=".5" cx="12" cy="93" rx="23" ry="5"/><path fill="#4468b8" fill-opacity=".5" d="M-11 101l27-2-11 8z"/><path fill="#587eb8" fill-opacity=".5" d="M131 125l-6-15-11 12z"/><path fill-opacity=".5" d="M-18 152.9l23.5-32.4L20 131.1l-23.5 32.4z"/><path fill="#92b8dd" fill-opacity=".5" d="M75.4 84.8L155.1 69l49.9 2.2-56.2 4.9z"/><path fill="#3c4b7e" fill-opacity=".5" d="M24 114L9 124l28-9z"/><path fill="#2f5c90" fill-opacity=".5" d="M101 75l35.9-3v1l-35.8 3z"/><path fill="#191418" fill-opacity=".5" d="M191.5 80.8l22.5 2.4-7.1-4.2-18.5 21.7z"/><path fill="#1e1c27" fill-opacity=".5" d="M187.3 95.5l-33.6 5-4.2 13.5-46-13.2z"/><path fill="#817196" fill-opacity=".5" d="M202 136.3l.4-2 17.6 3.4-.4 2z"/><path fill="#070301" fill-opacity=".5" d="M97 107l-27 26-6-46z"/><path fill="#151620" fill-opacity=".5" d="M12.5 104.5l26.4-3.1L72 122.8 3.2 107z"/><path fill="#8ba2c8" fill-opacity=".5" d="M257 73.4l-30.3-.5-25.1 7 14.2-10.8z"/><path fill="#3e5282" fill-opacity=".5" d="M47 133l11-23-27 25z"/><path fill="#d4ddf4" fill-opacity=".5" d="M258 56l.3 1L194 72l-.3-1z"/><path fill="#6793c5" fill-opacity=".5" d="M93 116l4-11 26 2z"/><path fill="#606ea6" fill-opacity=".5" d="M203 97l7-4 8 5z"/><path fill="#536aab" fill-opacity=".5" d="M203 111l-10 9 17-4z"/><path fill="#17141f" fill-opacity=".5" d="M160.4 125.6l6-20.5 17.7-5-41 26.8z"/><path fill="#859bbc" fill-opacity=".5" d="M199 77h22v3h-22z"/><path fill="#1c161a" fill-opacity=".5" d="M130.7 96.3l-.4-9.5-16 6.3 42.7-1z"/><path fill="#edf0f9" fill-opacity=".5" d="M163.8 56.7l29.9-18.5 6.5-17.3-78.3 40.6z"/><path fill="#c1caee" fill-opacity=".5" d="M203 85h11v2h-11z"/><ellipse fill="#7dbae6" fill-opacity=".5" rx="1" ry="1" transform="rotate(-97.2 67 7.5) scale(1 56.13656)"/><path fill="#718eba" fill-opacity=".5" d="M135 89h19v2h-19z"/><path fill="#0e0b0d" fill-opacity=".5" d="M212.7 84.5l10 6.3 27.6 45.5-32-26.5z"/><path fill="#c7cde0" fill-opacity=".5" d="M218.4 5l4 20.6-6.8 1.4-4-20.6z"/><ellipse fill="#2d558a" fill-opacity=".5" rx="1" ry="1" transform="matrix(-38.3469 5.0609 -.13084 -.9914 140.2 79.8)"/><path fill="#181517" fill-opacity=".5" d="M150.3 128.3L110.4 158l4.6-34 50.3 13.5z"/><ellipse fill="#5875af" fill-opacity=".5" cx="172" cy="117" rx="4" ry="4"/><path fill="#000007" fill-opacity=".5" d="M102.3 118.3l12.5-3.5.9 2.9-12.5 3.5z"/><path fill="#fff6ea" fill-opacity=".5" d="M238 21h16v10h-16z"/><path fill="#485790" fill-opacity=".5" d="M144 129l3-16 3 12z"/><ellipse fill="#243051" fill-opacity=".5" rx="1" ry="1" transform="rotate(173.2 20.7 44.2) scale(20.25454 1.90443)"/><path fill="#529ade" fill-opacity=".5" d="M222.5 11.6L212.3.6l13.2-12.2 10.2 11z"/><path fill="#16151c" fill-opacity=".5" d="M264.4 95.4l-49.6-8.9-22.3 11 13.1-4.5z"/><ellipse fill="#2a435d" fill-opacity=".5" cy="21" rx="1" ry="68"/><ellipse fill="#79bfe6" fill-opacity=".5" rx="1" ry="1" transform="matrix(1.44098 3.53542 -71.58528 29.17689 18 49.6)"/><path fill="#a6cdef" fill-opacity=".5" d="M144 80h29v5h-29z"/><path fill="#99c1df" fill-opacity=".5" d="M155.7 101.9l1.4 4.8-4.8 1.4-1.4-4.8z"/><path fill="#293248" fill-opacity=".5" d="M170 100l30-27.6 11.9-4.2-34.2 27.5z"/><path fill="#191c30" fill-opacity=".5" d="M17.3 119.1L83.5 147l-35.3-3.8 14.3-10.8z"/><ellipse fill="#4c76a1" fill-opacity=".5" rx="1" ry="1" transform="rotate(172.2 107 32.8) scale(251.78257 1)"/><ellipse fill="#e2f1fb" fill-opacity=".5" rx="1" ry="1" transform="rotate(173.7 56.5 30.1) scale(41.96017 8.82999)"/><path fill="#dceaf8" fill-opacity=".5" d="M224.3 49l12.4-6 1.3-4-56 13.9z"/><path fill="#14151e" fill-opacity=".5" d="M176 109h21v9h-21z"/><path fill="#a4bedf" fill-opacity=".5" d="M191.3 53l12.3 8.7-15 21.3-12.2-8.7z"/><path fill="#688bba" fill-opacity=".5" d="M199.5 101.6l-5 1.5-5.9 3.6 15 2.8z"/><path fill="#0f0c0d" fill-opacity=".5" d="M37.5 118.5L2.3 147.6l52.8-51.9 26.2-3.1z"/><path fill="#5e7ba1" fill-opacity=".5" d="M88.3 101.3L68.6 79l28 20.6 13.6-8.8z"/><path fill="#a9b4d2" fill-opacity=".5" d="M219.3 88.8l-.2-1 29.6-4.6.2 1z"/><path fill="#364e7a" fill-opacity=".5" d="M186 72h33v1h-33z"/><ellipse fill="#529ddc" fill-opacity=".5" cx="155" cy="9" rx="55" ry="4"/><ellipse fill="#3c4052" fill-opacity=".5" rx="1" ry="1" transform="matrix(-.13744 -.9905 34.19543 -4.745 228 88.8)"/><path fill="#150b08" fill-opacity=".5" d="M216.8 127l31-2.6-58.7 27.2 31.6-4.6z"/><ellipse fill="#7eb0d7" fill-opacity=".5" rx="1" ry="1" transform="rotate(79.3 6 97.4) scale(1 58.67097)"/><path fill="#83c1e8" fill-opacity=".5" d="M183 24.4l22.8-10-74 .8L76.6 27z"/><path fill="#7492be" fill-opacity=".5" d="M159 101h2v14h-2z"/><path fill="#f6e8e9" fill-opacity=".5" d="M262.6 61l-.5 3-16.7-3 .5-3z"/><path fill="#646870" fill-opacity=".5" d="M255 0h1v72h-1z"/><ellipse fill="#5d75a8" fill-opacity=".5" cx="94" cy="125" rx="11" ry="2"/><path fill="#1f2d4f" fill-opacity=".5" d="M220 76h22v3h-22z"/><ellipse fill="#6782ab" fill-opacity=".5" cx="173" cy="120" rx="9" ry="2"/><path fill="#090606" fill-opacity=".5" d="M225.4 93.5l-3 5.2-13.8-8.2 3-5.2z"/><path fill="#83aed4" fill-opacity=".5" d="M86.6 89.7l-.3 4-15-1.4.4-4z"/><path fill="#18181f" fill-opacity=".5" d="M196.8 101.4l2.5-28.2-9.7 7.7 11.2 15.3z"/><path fill="#89a6c3" fill-opacity=".5" d="M271 49l-19.4-39-9.6 9.4 29 1.3z"/><ellipse fill="#303347" fill-opacity=".5" rx="1" ry="1" transform="matrix(-2.17178 -1.5434 8.72116 -12.27186 133.5 114.4)"/><path fill="#243558" fill-opacity=".5" d="M-11.2 84.9l-.3-1 30.7-8.8.3 1z"/><path fill="#4a3836" fill-opacity=".5" d="M244 122l7 8 20-3z"/><path fill="#84b9de" fill-opacity=".5" d="M169.5 59.1l21.3 4.6-90.3 11.6-25.7-2.2z"/><ellipse fill="#99a4c6" fill-opacity=".5" cx="157" cy="129" rx="2" ry="2"/><path fill="#596384" fill-opacity=".5" d="M181 110.7l-2.9-8.5 2.9-1 2.9 8.6z"/><path stroke="#28364d" stroke-opacity=".5" fill="none" d="M138 75.2Q12.4 117.7 11.4 123" stroke-width=".5"/><path fill="#f4ebec" fill-opacity=".5" d="M216 9h29v5h-29z"/><ellipse fill="#3a7ece" fill-opacity=".5" rx="1" ry="1" transform="matrix(-1.66337 -6.38562 34.18996 -8.90606 34.6 17.7)"/><path fill="#8eafd4" fill-opacity=".5" d="M204.8 24.6l8.3-3.3 5.5-3.8 33-33.5z"/><path fill="#374366" fill-opacity=".5" d="M26 115l-3 11-13-3z"/><path fill="#3e537a" fill-opacity=".5" d="M181.8 93L160 86l-25.5 5 54-4.2z"/><path fill="#dbe8f3" fill-opacity=".5" d="M-4.2 65.1L-6 50.9 4.3 76.5 54.9 71z"/><path fill="#0f1e4b" fill-opacity=".5" d="M78 85l-13.7 3-.3-1 13.7-3z"/><path fill="#0d0f20" fill-opacity=".5" d="M1.2 100.6l27.4-8-38.1 4.9 3.7 40z"/><ellipse fill="#5b92c1" fill-opacity=".5" rx="1" ry="1" transform="matrix(.16564 1.20917 -109.38427 14.98378 128.8 64.4)"/><path fill="#19110c" fill-opacity=".5" d="M173 95h17v9h-17z"/><ellipse fill="#5c78a5" fill-opacity=".5" rx="1" ry="1" transform="matrix(.14543 1.22515 -9.64266 1.14464 163.6 102.4)"/><ellipse fill="#a0b1d1" fill-opacity=".5" rx="1" ry="1" transform="matrix(46.68855 -7.91959 .16724 .98592 255 68.2)"/><path fill="#2a3f6c" fill-opacity=".5" d="M178 119h52v5h-52z"/><path fill="#13101b" fill-opacity=".5" d="M156 126l15-3-29-4z"/><path fill="#97bde4" fill-opacity=".5" d="M89.3 98.7l-.4-.9 23.8-10.5.4.9z"/><path fill="#a5b5dd" fill-opacity=".5" d="M228 95h3v4h-3z"/><path fill="#29314c" fill-opacity=".5" d="M88.7 142.7L86.5 124l-13.1 10.4 33-3.7z"/><path fill="#010000" fill-opacity=".5" d="M233 96h14v7h-14z"/><path fill="#28375d" fill-opacity=".5" d="M101.5 95.1l7.5 12.7-18-.8 24-12.3z"/><ellipse fill="#5686ab" fill-opacity=".5" cx="168" cy="67" rx="11" ry="2"/><path fill="#242c4e" fill-opacity=".5" d="M162 97.4l-19.3-11.7 6.1 7.4 25-8.4z"/><ellipse fill="#5771aa" fill-opacity=".5" rx="1" ry="1" transform="rotate(131.6 49.2 91) scale(6.41306 2.31102)"/><path fill="#818dae" fill-opacity=".5" d="M235.8 77.3l.2 1-11.8 2.4-.2-1z"/><path fill="#2e58b9" fill-opacity=".5" d="M1-10l1 21L69-2z"/><path fill="#222c48" fill-opacity=".5" d="M254 79l-20 5-2-9z"/><path fill="#a3d6f3" fill-opacity=".5" d="M105 23h79v9h-79z"/><ellipse fill="#4788cd" fill-opacity=".5" cx="204" cy="1" rx="33" ry="5"/><path fill="#abd6f0" fill-opacity=".5" d="M126.9 72.7l-.2-1 36.4-6.4.2 1z"/><path fill="#6b8dbf" fill-opacity=".5" d="M47 97l6-10 8 2z"/><ellipse fill="#9fa7cd" fill-opacity=".5" cx="206" cy="87" rx="2" ry="2"/><path fill="#526090" fill-opacity=".5" d="M239 110l-5-7h11z"/><ellipse fill="#3c4769" fill-opacity=".5" cx="40" cy="102" rx="10" ry="2"/><path fill="#212b49" fill-opacity=".5" d="M191 138l45-23-46 8z"/><ellipse fill="#3c4c80" fill-opacity=".5" rx="1" ry="1" transform="matrix(14.30126 -5.6891 .455 1.14379 143.5 121.3)"/><path fill="#131217" fill-opacity=".5" d="M133.3 123.9l19.2-16.3-40.3-19 32.5 8.7z"/><path fill="#aad8f0" fill-opacity=".5" d="M117.2 25.4l-13.9 9.1-118.2 39.7 56.6-27.6z"/><path fill="#2a4979" fill-opacity=".5" d="M102 88.8l-.3-1 16.3-4.6.3 1z"/><ellipse fill="#0b0a0a" fill-opacity=".5" rx="1" ry="1" transform="matrix(6.74336 -12.26613 5.79971 3.18842 246.6 113.6)"/><path fill="#090707" fill-opacity=".5" d="M55 134l4-42 38 13z"/><path fill="#98bfe2" fill-opacity=".5" d="M153.8 70.7l-32.4-4 53 6.3-46 6.1z"/><ellipse fill="#191f36" fill-opacity=".5" rx="1" ry="1" transform="rotate(114.1 -18.5 82.7) scale(29.40127 1.68958)"/><ellipse fill="#3d80d6" fill-opacity=".5" rx="1" ry="1" transform="matrix(-.8408 -4.76836 67.58623 -11.91728 132.2 0)"/><path fill="#18151a" fill-opacity=".5" d="M130.5 86.6l5.2 27.3 31-9.4-41.6 11z"/><path fill="#5e7399" fill-opacity=".5" d="M221.3 50.3l8.7-2.8 39.5 4.8-76.5 1.3z"/><path fill="#95afd8" fill-opacity=".5" d="M213.6 77.1l-9.7-5.3.5-.9 9.7 5.3z"/><path fill="#b6d0e6" fill-opacity=".5" d="M226 35h29v10h-29z"/><path fill="#1d1c23" fill-opacity=".5" d="M184 118l-8-14-20 4z"/><path fill="#3f4b77" fill-opacity=".5" d="M5.8 94.4L40 86.6l.3 1L6 95.4z"/><path fill="#17151c" fill-opacity=".5" d="M192.2 116.3l15.1-8.9-4-6.5 67.7-7z"/><path fill="#bfd2ec" fill-opacity=".5" d="M235.8 61.7l.1 1-53.7 5.6-.1-1z"/><path fill="#30588e" fill-opacity=".5" d="M133 71.6l.2 1L89 80.4l-.1-1z"/><path fill="#0e244e" fill-opacity=".5" d="M124.6 82l-1-2.7 3.8-1.4 1 2.8z"/><path fill="#3d548c" fill-opacity=".5" d="M52.8 118.6l-1.3 8.9-13.7-5-2.6-2z"/><ellipse fill="#7983b4" fill-opacity=".5" cx="207" cy="134" rx="3" ry="2"/><ellipse fill="#7e7476" fill-opacity=".5" cx="124" cy="101" rx="2" ry="2"/><ellipse fill="#a3c6e8" fill-opacity=".5" cx="110" cy="79" rx="11" ry="2"/><path fill-opacity=".5" d="M22 126h5v9h-5z"/><path fill="#442c36" fill-opacity=".5" d="M201 138h27v5h-27z"/><path fill="#56668b" fill-opacity=".5" d="M225 73h25v3h-25z"/><path fill="#060302" fill-opacity=".5" d="M15.5 142.6l-31.5-.2 34.7-26.2-14 1z"/><path fill="#9ec3e3" fill-opacity=".5" d="M132.6 85.7l63-12.3-30.2 10.3-38.4 3z"/><path fill="#2f3c60" fill-opacity=".5" d="M217 66h26v3h-26z"/><ellipse fill="#282327" fill-opacity=".5" rx="1" ry="1" transform="matrix(-3.41494 2.25174 -1.4103 -2.13882 179.7 82.5)"/><path fill="#6c8cb9" fill-opacity=".5" d="M209 63l7-6 12 1z"/><path fill="#00000d" fill-opacity=".5" d="M233 64h18v1h-18z"/><path fill="#3969a0" fill-opacity=".5" d="M7.7 88.3l-.2-1 76.8-13.6.2 1z"/><path fill="#608fc0" fill-opacity=".5" d="M129.7 83l-44.1-5.7 55.1 7.6 20.2-6.6z"/><path fill="#aed0ee" fill-opacity=".5" d="M215.5 57l-66.8 13-.2-1 66.8-13z"/><path fill="#354365" fill-opacity=".5" d="M202 81h54v2h-54z"/><path fill="#5d89b3" fill-opacity=".5" d="M184.5 65.3l11-1.1-42.3 7-.4-2.6z"/><path fill="#445178" fill-opacity=".5" d="M165.6 129.2l-1.3 3.8-18-6.2 1.4-3.8z"/><path fill="#4d9dd8" fill-opacity=".5" d="M2.4 48l6.2-3.6L65 21.7 2.6 30.3z"/><path fill="#899abd" fill-opacity=".5" d="M111 129h2v4h-2z"/><path fill="#7fa4cd" fill-opacity=".5" d="M114 84l8 3-6 1z"/><path fill="#8d95aa" fill-opacity=".5" d="M259.5 83.5l-.1 1-18.9-2 .1-1z"/><path fill="#4a73a9" fill-opacity=".5" d="M125 109.5l-33.3 10.9-.7-2 33.3-10.8z"/><ellipse fill="#87abd2" fill-opacity=".5" rx="1" ry="1" transform="matrix(10.8891 -.97646 .21587 2.40734 100.2 82)"/><path fill="#1e1c24" fill-opacity=".5" d="M116 88l21 5-31 11z"/><path fill="#707ca4" fill-opacity=".5" d="M201.2 99.5l9.2-4 .4 1-9.2 4z"/><path fill="#252637" fill-opacity=".5" d="M97.3 120.2l-26 14.7 26-24.9-12.7 4.8z"/><path fill="#5a87af" fill-opacity=".5" d="M136.6 61l-81 13-.2-1 81-13z"/><path fill="#e4f0fa" fill-opacity=".5" d="M27.8 74l41.9-18.6 33 9.8 28-5.3z"/><ellipse fill="#6599d1" fill-opacity=".5" cx="122" cy="118" rx="3" ry="3"/><path fill="#5e6f91" fill-opacity=".5" d="M153 141h5v2h-5z"/><path fill="#f3eae8" fill-opacity=".5" d="M225 8h24v9h-24z"/><path fill="#5ea8e0" fill-opacity=".5" d="M169.4 6.3l-105.6 10L208.2 12l-25 7.2z"/><path fill="#f3f2f7" fill-opacity=".5" d="M148 51.2l33-14.4 7.3-17.6 1.3 24.6z"/><ellipse fill="#110e0e" fill-opacity=".5" cx="20" cy="109" rx="50" ry="3"/><path fill="#cbeafa" fill-opacity=".5" d="M190.8 33.8l-38.1 11.7L94 43.7l63.8-15.4z"/><path fill="#6377ba" fill-opacity=".5" d="M5.5 115.4v1l-5 .2v-1z"/><path fill="#7aa0ca" fill-opacity=".5" d="M127 71h12v8h-12z"/><path fill="#90a0c5" fill-opacity=".5" d="M186 77h6v5h-6z"/><path fill="#10203c" fill-opacity=".5" d="M161 104h14v2h-14z"/><path fill="#131319" fill-opacity=".5" d="M127.2 158l32.3-27.3-18-1 .6-11.4z"/><path fill="#fffffc" fill-opacity=".5" d="M254-2.2l-1.2 12L238 8.2l1.3-12z"/><ellipse fill="#2b3953" fill-opacity=".5" rx="1" ry="1" transform="matrix(-25.45307 9.2366 -.50648 -1.3957 255 73.1)"/><path fill="#17161f" fill-opacity=".5" d="M213.9 96.1L200 105l13.7 9.6-2.3 13z"/><path fill="#71a2cf" fill-opacity=".5" d="M91 71l-13 7 28-4z"/><path fill="#171114" fill-opacity=".5" d="M203 90l-5-9-22 1z"/><path fill="#2e374e" fill-opacity=".5" d="M140.7 131l6.6 2.3-2 5.7-6.6-2.3z"/><path fill="#6c9fd5" fill-opacity=".5" d="M52.2 77L20 84l-.2-1L52 76z"/><path fill="#0d1122" fill-opacity=".5" d="M158 140h46v3h-46z"/><path fill="#151c37" fill-opacity=".5" d="M76.4 79.3L7.8 97.7l-.2-1 68.6-18.4z"/><path fill="#737697" fill-opacity=".5" d="M202.5 93.2l-.8-.5 3.8-6 .8.6z"/><path fill="#251e2d" fill-opacity=".5" d="M163 93h47v4h-47z"/><path fill="#5b74a7" fill-opacity=".5" d="M201.7 116.3l-7.2-17.2 2.2 11 13.4 6.4z"/><ellipse fill="#776f82" fill-opacity=".5" cx="255" cy="62" rx="19" ry="1"/><ellipse fill="#5d7ba8" fill-opacity=".5" cx="68" cy="89" rx="30" ry="1"/><path fill="#576b90" fill-opacity=".5" d="M229 78l-18-1 12 9z"/><ellipse fill="#353858" fill-opacity=".5" cx="9" cy="114" rx="10" ry="2"/><path fill="#7f91b0" fill-opacity=".5" d="M197.4 79.2l.2-3 13 .6-.2 3z"/><path fill="#efedf5" fill-opacity=".5" d="M214 9l5-1-7-3z"/><path fill="#475279" fill-opacity=".5" d="M208 94.7l9.4 7.8-1.5-4.9-10.3-2.3z"/><path fill="#bdc9e0" fill-opacity=".5" d="M215.8 9.7l-27.7 23.7 27.5-11.1-29.5-.5z"/><path fill="#3f5571" fill-opacity=".5" d="M257.3 45.2l-34.4 6.6-.2-1 34.4-6.6z"/><ellipse fill="#282427" fill-opacity=".5" cx="128" cy="90" rx="4" ry="4"/><path fill="#384d81" fill-opacity=".5" d="M16.8 101.5l52.9-15.8-57.4 12.6-1.6 9z"/><path fill="#d5e4f5" fill-opacity=".5" d="M191.7 71l-1.1-3.8 7.7-2.2 1.1 3.8z"/><path fill="#151621" fill-opacity=".5" d="M68.4 158l78-33.4 24.7-10.2-1-2z"/><path fill="#252a56" fill-opacity=".5" d="M-16 158l80-13.7-51.1-4.8 24-8.3z"/><ellipse fill="#aed4ef" fill-opacity=".5" rx="1" ry="1" transform="matrix(.11041 .99389 -16.45275 1.82772 157 72)"/><ellipse fill="#7aa7d6" fill-opacity=".5" rx="1" ry="1" transform="matrix(1.42406 .71987 -2.19757 4.34726 135.7 86.2)"/><path fill="#bfc1d7" fill-opacity=".5" d="M249 67h6v4h-6z"/><path fill="#a2bddb" fill-opacity=".5" d="M149 103h4v2h-4z"/><path fill="#91b9db" fill-opacity=".5" d="M203 37h11v2h-11z"/><path fill="#315490" fill-opacity=".5" d="M103 104h7v4h-7z"/><path fill="#192447" fill-opacity=".5" d="M235.5 82.5l-.1 1-14.9-2 .1-1z"/><path fill="#6f87b1" fill-opacity=".5" d="M53 91l-3 9h-7z"/><ellipse fill="#b0c5de" fill-opacity=".5" cx="236" cy="72" rx="12" ry="1"/><path fill="#8aadca" fill-opacity=".5" d="M150 102.2l10.7 2.7-.7 2.9-10.7-2.7z"/><path fill="#181c2d" fill-opacity=".5" d="M57 110.1l-34 9.4 43.8-3.7 6.9 5z"/><path fill="#1a2a4e" fill-opacity=".5" d="M105 121h6v5h-6z"/><ellipse fill="#606f93" fill-opacity=".5" cx="235" cy="58" rx="11" ry="1"/><path fill="#6183bd" fill-opacity=".5" d="M22 98l1 5 9-3z"/><ellipse fill="#090505" fill-opacity=".5" cx="225" cy="110" rx="8" ry="8"/><ellipse fill="#0e0b0d" fill-opacity=".5" rx="1" ry="1" transform="matrix(3.0971 -3.87967 6.865 5.48026 227.2 131.8)"/><path fill="#283046" fill-opacity=".5" d="M159 100.4l-28.5 6.2 30.8-5-62.3 2.2z"/><path fill="#8da9d0" fill-opacity=".5" d="M236.2 53.9l-26.4 9 14.3 1.6-33.6-6.6z"/><ellipse fill="#7aa8d5" fill-opacity=".5" rx="1" ry="1" transform="matrix(.43784 1.48765 -5.98753 1.76223 105 111.5)"/><path fill="#1c2844" fill-opacity=".5" d="M41.1 122.6L28.8 135l-1-7.8 38.5-8.6z"/><ellipse fill="#1a1e2c" fill-opacity=".5" cx="190" cy="111" rx="5" ry="5"/><path fill="#0b0a0c" fill-opacity=".5" d="M97 106.6L68.5 90l-11 3-2.1 17.2z"/><path stroke="#6183ab" stroke-opacity=".5" fill="none" d="M231.3 69.2q-82.1 11.2-84.6 1.5" stroke-width=".5"/><path stroke="#293143" stroke-opacity=".5" fill="none" d="M66 88.6q7.2 14 37.5 7" stroke-width=".5"/><path fill="#4a6893" fill-opacity=".5" d="M120 106l-25.7 21-10.3-.4 14.3-6.3z"/><path fill="#0c0c1a" fill-opacity=".5" d="M19.9 102l4.3 2.6-2 3.4-4.4-2.6z"/><path fill="#262e4c" fill-opacity=".5" d="M253.9 94.6l-18.4 24-34.8 17.2 30.3-19z"/><path fill="#94acd4" fill-opacity=".5" d="M167 102h5v2h-5z"/><ellipse fill="#4c5d81" fill-opacity=".5" cx="176" cy="91" rx="8" ry="3"/><path fill="#6f8dc4" fill-opacity=".5" d="M43 83.8l-21.8 3.4-.1-1 21.7-3.4z"/><path fill="#44639f" fill-opacity=".5" d="M4 106.5l26.3-7.3-17.5 3.2-6.5-2z"/><path fill="#4b4e72" fill-opacity=".5" d="M145 94h19v3h-19z"/><ellipse fill="#8a91aa" fill-opacity=".5" cx="255" cy="78" rx="5" ry="1"/><path fill="#0f0f22" fill-opacity=".5" d="M142 97h20v3h-20z"/><path fill="#7cacdb" fill-opacity=".5" d="M196 108l4-7h-3z"/><path fill="#7092c0" fill-opacity=".5" d="M73 82h31v3H73z"/><path fill="#43434d" fill-opacity=".5" d="M136 103h4v10h-4z"/><path fill="#60a8e0" fill-opacity=".5" d="M87.4 14.5l17.5 3.8-76.4 16.1 22-10z"/><path fill="#dcedf8" fill-opacity=".5" d="M111.2 40.8l46.5 15.6-37 6.4-38 3.6z"/><path fill="#01081e" fill-opacity=".5" d="M246 79h10v2h-10z"/><path stroke="#283445" stroke-opacity=".5" fill="none" d="M45.2 105.2Q69.4 93.6 97.8 91" stroke-width=".5"/><ellipse fill="#3b4c6b" fill-opacity=".5" cx="205" cy="77" rx="2" ry="2"/><path fill="#161e3a" fill-opacity=".5" d="M207.6 81l.3 1-9.5 3-.3-1z"/><path stroke="#1b3360" stroke-opacity=".5" fill="none" d="M34.8 82Q7 89-16 100" stroke-width=".5"/><ellipse fill="#4f96d8" fill-opacity=".5" cx="158" cy="7" rx="51" ry="3"/><path fill="#0e0a0e" fill-opacity=".5" d="M98.4 99.7l-21.5 34.6-3.9-42-29.4 10z"/><ellipse fill="#08121a" fill-opacity=".5" cx="203" cy="74" rx="2" ry="2"/><ellipse fill="#90b9e0" fill-opacity=".5" cx="105" cy="92" rx="5" ry="3"/><path fill="#395684" fill-opacity=".5" d="M87 85h21v2H87z"/><path fill="#e0e6f1" fill-opacity=".5" d="M247.4 39.1l-36.4.2-42.5 13 46-4.3z"/><ellipse fill="#7298c6" fill-opacity=".5" cx="116" cy="113" rx="7" ry="1"/><path fill="#bbcfe9" fill-opacity=".5" d="M230 63l-7 2 3-5z"/><path fill="#6f7187" fill-opacity=".5" d="M174.5 136h-3v-2h3z"/><path fill="#555e8d" fill-opacity=".5" d="M30.4 90L24 93l-.4-1 6.4-3z"/><path stroke="#818da9" stroke-opacity=".5" fill="none" d="M205.6 85.5q23-3 52.7 2.6" stroke-width=".5"/><path fill="#182139" fill-opacity=".5" d="M167.2 125.5l5.1-2.5 5.4-2.8-4.5 7.6z"/><path fill="#3f598c" fill-opacity=".5" d="M115.8 120.4l.3-1 20 6.2-.2 1z"/><path fill="#0e0c0c" fill-opacity=".5" d="M141.5 158l-20.2-34 46.3 31.3.8-14.3z"/><path fill="#04060b" fill-opacity=".5" d="M255 74h1v69h-1z"/><path fill="#405580" fill-opacity=".5" d="M199.7 117l-22.7 8-.7-2 22.7-7.8z"/><path fill="#6e93bc" fill-opacity=".5" d="M188 67.5l4.3.1H170l23-4.3z"/><path fill="#0e1015" fill-opacity=".5" d="M207 90h34v4h-34z"/><ellipse fill="#181a2d" fill-opacity=".5" rx="1" ry="1" transform="matrix(.26076 1.44047 -25.0295 4.53102 51.9 142)"/><path fill="#242c55" fill-opacity=".5" d="M53.5 138.3l-21.5.4 14.5-5.4 17.4 9.7z"/><path fill="#525463" fill-opacity=".5" d="M172 104h20v2h-20z"/><path fill="#6fa4ca" fill-opacity=".5" d="M74.6 76l-19.2 3.3-1.7 4 17.9-9.8z"/><path fill="#354b70" fill-opacity=".5" d="M35.7 74l.2 1-31.6 5-.2-1z"/><path fill="#5d8ab8" fill-opacity=".5" d="M123.5 68.7l2.6 1.5-28.4 7.9 8.9-3z"/><path fill="#f1e6e2" fill-opacity=".5" d="M264.6 17.6L254 23l1.5 13-23.5-7.4z"/><ellipse fill="#0c0b1d" fill-opacity=".5" cx="245" cy="63" rx="2" ry="2"/><path fill="#a2b1cc" fill-opacity=".5" d="M222.1 13.4l-12 1 18.2 5.5-7.2 1.2z"/><path stroke="#9fc5e6" stroke-opacity=".5" fill="none" d="M111.7 87.5q39.8-.4 63.3-9.5" stroke-width=".5"/><path fill="#577ba1" fill-opacity=".5" d="M100 95h7v2h-7z"/><path fill="#143a62" fill-opacity=".5" d="M117.2 109.6l.3 1-4.7 1.8-.3-1z"/><path fill="#072f6a" fill-opacity=".5" d="M-4 87.4v-3l8 .2v3z"/><path fill="#95a4c4" fill-opacity=".5" d="M220 80.2v-1l8 .6v1z"/><ellipse fill="#42659d" fill-opacity=".5" rx="1" ry="1" transform="matrix(.1915 .9815 -16.79338 3.27673 36.6 97.2)"/><ellipse fill="#404c63" fill-opacity=".5" cx="229" cy="88" rx="7" ry="2"/><path fill="#21467b" fill-opacity=".5" d="M139 77h26v1h-26z"/><path fill="#1b1925" fill-opacity=".5" d="M243.4 128L205 158h66l-25.5-24.1z"/><ellipse fill="#050000" fill-opacity=".5" cx="29" cy="120" rx="3" ry="3"/><path fill="#c8dce9" fill-opacity=".5" d="M34 61.3L-1.6 75.5-16 76.8l27.6 1z"/><path fill="#374b80" fill-opacity=".5" d="M43 126l-17 7 12-1z"/><ellipse fill="#769fcb" fill-opacity=".5" cx="95" cy="88" rx="2" ry="3"/><ellipse fill="#000a19" fill-opacity=".5" cx="231" cy="66" rx="8" ry="1"/><path fill="#000003" fill-opacity=".5" d="M155 110.8l1-3.9 1 .3-1 3.9z"/><path fill="#5c77b5" fill-opacity=".5" d="M46 123h6v3h-6z"/><path fill="#284f7f" fill-opacity=".5" d="M147 77h14v2h-14z"/><path fill="#516e8c" fill-opacity=".5" d="M141.2 90.2l25.4-5.4.2 1-25.4 5.4z"/><ellipse fill="#718cb9" fill-opacity=".5" cx="192" cy="105" rx="2" ry="2"/><ellipse fill="#181e38" fill-opacity=".5" cx="203" cy="129" rx="5" ry="5"/><path fill="#f2f3f5" fill-opacity=".5" d="M175 44.3l-.6-2 42.5-14.6.7 2z"/><path fill="#827f98" fill-opacity=".5" d="M240 66h7v3h-7z"/><path fill="#030100" fill-opacity=".5" d="M118.5 138.7l-.3 2-20.7-3.4.3-2z"/><path fill="#2a3148" fill-opacity=".5" d="M5 107h31v1H5z"/><path fill="#000b16" fill-opacity=".5" d="M199 74h6v2h-6z"/><ellipse fill="#0a070c" fill-opacity=".5" cx="140" cy="114" rx="5" ry="5"/><path fill="#9ac7e6" fill-opacity=".5" d="M146 64h5v13h-5z"/><path fill="#4a6c97" fill-opacity=".5" d="M217 70h4v4h-4z"/><path fill="#111321" fill-opacity=".5" d="M23 92h7v4h-7z"/><path fill-opacity=".5" d="M81.8 113.4L57.3 99.8l3-5.2 24.4 13.6z"/><ellipse fill-opacity=".5" cx="208" cy="88" rx="1" ry="1"/><path fill="#7db9df" fill-opacity=".5" d="M253 17.8v1l-16 1.4v-1z"/><path fill="#0c0706" fill-opacity=".5" d="M135 91l-4 12 3 6z"/><path fill="#2d334a" fill-opacity=".5" d="M122.2 123.3l21.5-20-12.3 19.9-7.5-.5z"/><ellipse fill="#4e64a3" fill-opacity=".5" cx="38" cy="134" rx="4" ry="2"/><ellipse fill="#0d3364" fill-opacity=".5" cx="168" cy="74" rx="1" ry="1"/><path fill="#2b3d65" fill-opacity=".5" d="M203 80h13v4h-13z"/><path fill="#4d90cc" fill-opacity=".5" d="M222 7l15-7-30-9z"/><path fill="#4c547b" fill-opacity=".5" d="M190 110h15v1h-15z"/><path stroke="#9ba6bf" stroke-opacity=".5" fill="none" d="M209.8 64.2q27-3.8 46.4 0" stroke-width=".5"/><path fill="#667a80" fill-opacity=".5" d="M0 45l-14-6L0 77z"/><path fill="#70b7e3" fill-opacity=".5" d="M202.2 14.5l-1.5 1.8-46.7 4.5 10.3-9.4z"/><ellipse fill="#00020c" fill-opacity=".5" cx="15" cy="118" rx="6" ry="2"/><path fill="#171214" fill-opacity=".5" d="M210 99l11 19-18-7z"/><path fill="#6c85b0" fill-opacity=".5" d="M218 50h24v5h-24z"/><path fill="#0d1e3d" fill-opacity=".5" d="M11.7 93l-.3-1 23-7 .2 1z"/><path fill="#2d3a5c" fill-opacity=".5" d="M96.4 128.3l-18.3 5.3-.5-2 18.3-5.2z"/><path fill="#141621" fill-opacity=".5" d="M184.7 158l-40.6-24 10-8.5 9 32.5z"/><path fill="#050d1f" fill-opacity=".5" d="M31 102.4l-11.4 8-.6-.8 11.4-8z"/><path fill="#0b0a0b" fill-opacity=".5" d="M24 132l-2-5 10 2z"/><path fill="#000006" fill-opacity=".5" d="M189 114.6l.2-1 7.8 1.8-.2 1z"/><path fill="#181e34" fill-opacity=".5" d="M182.4 82.2L154 94.8l-.4-1L182 81.2z"/><path fill="#4f546f" fill-opacity=".5" d="M35 102h16v2H35z"/><ellipse fill="#6686b5" fill-opacity=".5" cx="71" cy="88" rx="25" ry="1"/><path fill="#0d0c14" fill-opacity=".5" d="M162 96h15v2h-15z"/><path fill="#272f5b" fill-opacity=".5" d="M18 133L5 158l22-22z"/><ellipse fill="#697ca0" fill-opacity=".5" cx="197" cy="73" rx="13" ry="1"/><path fill="#ccd1de" fill-opacity=".5" d="M209.2 27.7l-.2.7L234.9 15l.5 20.6z"/><ellipse fill="#a1c3dd" fill-opacity=".5" cx="173" cy="79" rx="4" ry="4"/><ellipse fill="#5c7a9a" fill-opacity=".5" cx="187" cy="114" rx="1" ry="1"/><path stroke="#88b0d9" stroke-opacity=".5" fill="none" d="M122.3 69.4q-44 9.7-84.5 14.3" stroke-width=".5"/><path stroke="#7a9ec4" stroke-opacity=".5" fill="none" d="M235.2 51q-81.1 29.4-114.9 35.4" stroke-width=".5"/><path fill="#070408" fill-opacity=".5" d="M140 102l10 4-1 4z"/><ellipse fill="#6a90c5" fill-opacity=".5" cx="152" cy="112" rx="1" ry="5"/><path fill="#0f0c0b" fill-opacity=".5" d="M196 76.2l3.9 14.5-3.9 1-3.9-14.4z"/><path fill="#375b92" fill-opacity=".5" d="M92 76h9v4h-9z"/><path fill="#303854" fill-opacity=".5" d="M20 128l4-13-14 8z"/><path fill="#c0c4d2" fill-opacity=".5" d="M244 54h8v4h-8z"/><ellipse fill="#546686" fill-opacity=".5" cx="101" cy="133" rx="3" ry="2"/><path fill="#667097" fill-opacity=".5" d="M236.1 109.7l-1.2-6.9 3-.5 1.2 6.9z"/><ellipse fill="#303b63" fill-opacity=".5" cx="196" cy="99" rx="2" ry="2"/><ellipse fill="#a9bce8" fill-opacity=".5" cx="207" cy="85" rx="2" ry="2"/><path fill="#08090d" fill-opacity=".5" d="M256 96.6l-1.7-11.2-14.5 18.3-8.8-5z"/><path fill="#363f66" fill-opacity=".5" d="M232 103h12v3h-12z"/><path fill="#6378a7" fill-opacity=".5" d="M211.5 68.3l27 .4v1l-27-.4z"/><path fill="#13336e" fill-opacity=".5" d="M-.2 28.5l-.6-33h1l.6 33z"/><ellipse fill="#7397be" fill-opacity=".5" cx="84" cy="94" rx="3" ry="3"/><path fill="#628cb5" fill-opacity=".5" d="M108.6 88l14.4-7 .4 1-14.4 7z"/><ellipse fill="#1d3b70" fill-opacity=".5" cx="48" cy="94" rx="4" ry="1"/><path fill="#0c0d17" fill-opacity=".5" d="M183 131h9v3h-9z"/><ellipse fill="#333f6d" fill-opacity=".5" cx="49" cy="138" rx="7" ry="2"/><ellipse fill="#0f3a68" fill-opacity=".5" cx="175" cy="66" rx="1" ry="1"/><path fill="#1d2a40" fill-opacity=".5" d="M255 45h1v7h-1z"/><path fill="#373243" fill-opacity=".5" d="M228.8 139.5l42.2 14.1-61.2-19.2 11.1 1.3z"/><path stroke="#0c0d17" stroke-opacity=".5" fill="none" d="M47.4 130.8q35-7 51-10.6" stroke-width=".5"/><path fill="#648ebc" fill-opacity=".5" d="M98.6 107.1l3.8 13.5-1 .3-3.8-13.5z"/><ellipse fill="#68657c" fill-opacity=".5" cx="198" cy="92" rx="4" ry="1"/><ellipse fill="#383f5f" fill-opacity=".5" cx="196" cy="134" rx="7" ry="2"/><ellipse fill="#7791b2" fill-opacity=".5" rx="1" ry="1" transform="matrix(.16995 1.3774 -8.90505 1.09875 255 16.1)"/><path fill="#211e24" fill-opacity=".5" d="M171.9 106l26.5-11.4-6.5-3.9-12.7 5.4z"/><path fill="#100d10" fill-opacity=".5" d="M247.7 119.7l-17.2-5.6 6.3-5-29.2-8.5z"/><ellipse fill="#6b94bb" fill-opacity=".5" rx="1" ry="1" transform="matrix(.49348 -4.265 .99337 .11494 76.4 90.3)"/><path stroke="#2c425e" stroke-opacity=".5" fill="none" d="M124.3 84.3q-6-2-14 23.1" stroke-width=".5"/><path stroke="#1d2b43" stroke-opacity=".5" fill="none" d="M141.3 87.5q21.9 3.2 42.3 10.3" stroke-width=".5"/><path fill="#a3c7e0" fill-opacity=".5" d="M240 37h15v8h-15z"/><path fill="#3b79cc" fill-opacity=".5" d="M131.5 2.3l82.1-2L153.7-16 50 11.7z"/><path fill="#2c3761" fill-opacity=".5" d="M231.7 73.6l-4.8 3.6-.6-.8 4.8-3.6z"/><ellipse fill="#000315" fill-opacity=".5" cx="114" cy="115" rx="2" ry="2"/><path fill="#0c0c0c" fill-opacity=".5" d="M79.8 126.3L68.3 152l16.3-16.1-33.7-12.7z"/><ellipse fill="#030416" fill-opacity=".5" cx="112" cy="117" rx="3" ry="3"/><path fill="#324b5e" fill-opacity=".5" d="M255 14h1v6h-1z"/><path fill="#5b7da8" fill-opacity=".5" d="M130 74l2 2 7-2z"/><path fill="#9dd5fb" fill-opacity=".5" d="M68 75h7v1h-7z"/><ellipse fill="#414fa8" fill-opacity=".5" cx="237" cy="111" rx="2" ry="2"/><path fill="#223052" fill-opacity=".5" d="M55.8 125.3l.3 1-20 6.4-.2-1z"/><path fill="#a9c9f4" fill-opacity=".5" d="M78.5 77.3v-1l9 .4v1z"/><path fill="#85add7" fill-opacity=".5" d="M86.6 90.2l10.5-3.4.3 1-10.5 3.4z"/><path fill="#6c8eba" fill-opacity=".5" d="M41 96h11v4H41z"/><path fill="#262e4a" fill-opacity=".5" d="M166 122l-9 13 48-9z"/><ellipse fill="#bac4d8" fill-opacity=".5" cx="236" cy="19" rx="5" ry="5"/><path fill="#7ec2e7" fill-opacity=".5" d="M0 52l30-14.2 57.6-12-32.4 15.8z"/><path fill="#1e1d23" fill-opacity=".5" d="M186.3 104.2l9.4 4.2-17.7 10.2-2-2.8z"/><path fill="#0f0c0d" fill-opacity=".5" d="M19.8 131.1l-5-5.7-17.6-6-12 27.7z"/><ellipse fill="#5f7ca4" fill-opacity=".5" rx="1" ry="1" transform="matrix(.84402 1.90112 -4.08097 1.81179 117.6 120)"/><ellipse fill="#add8f5" fill-opacity=".5" cx="132" cy="86" rx="2" ry="2"/><ellipse fill="#7e91bf" fill-opacity=".5" cx="181" cy="108" rx="1" ry="1"/><path stroke="#8ca4c5" stroke-opacity=".5" fill="none" d="M246.8 75q-34.6-3.5-42-19" stroke-width=".5"/><path fill="#576185" fill-opacity=".5" d="M205.2 137l6.9-8.6.7.6-6.9 8.6z"/><path fill="#7da9d8" fill-opacity=".5" d="M118.3 107l-22.2 9-.4-1 22.2-9z"/><ellipse fill="#a7cdfc" fill-opacity=".5" cx="152" cy="113" rx="1" ry="1"/><path fill="#1e1b24" fill-opacity=".5" d="M55.7 158l71.7-17.6-77 .5L82 131z"/><ellipse fill="#6786b9" fill-opacity=".5" cx="41" cy="94" rx="4" ry="2"/><path fill="#bcdef6" fill-opacity=".5" d="M164 69h9l-11 5z"/><ellipse fill="#aad6f8" fill-opacity=".5" cx="141" cy="85" rx="9" ry="1"/><ellipse fill="#3c4a7d" fill-opacity=".5" rx="1" ry="1" transform="matrix(-10.15435 3.73503 -.34521 -.93852 41.1 121.8)"/><path fill="#7a8fac" fill-opacity=".5" d="M178.4 104.8l.4-.9 2.8 1.3-.4.9z"/><ellipse fill="#0e0d11" fill-opacity=".5" cx="238" cy="98" rx="6" ry="6"/><path fill="#8ba6c3" fill-opacity=".5" d="M169 78h17v1h-17z"/><ellipse fill="#110b07" fill-opacity=".5" cx="132" cy="119" rx="2" ry="2"/><path fill="#201b1b" fill-opacity=".5" d="M114.6 128l7.6 23.9 8-25-9-1z"/><path fill="#9ac3e3" fill-opacity=".5" d="M99 79h20v2H99z"/><path fill="#000002" fill-opacity=".5" d="M154.6 123.4l-3 .2-.2-5 3-.2z"/><path fill="#fffefd" fill-opacity=".5" d="M193 23l-8 2 1 5z"/><path fill="#0a0608" fill-opacity=".5" d="M45 116l-10-5 30-12z"/><path fill="#baceeb" fill-opacity=".5" d="M215.6 63.5l22.6-4 .2 1-22.6 4z"/><path fill="#3d66a6" fill-opacity=".5" d="M4 81l-2 8 22-13z"/><path fill="#95a4c4" fill-opacity=".5" d="M200 78h10v2h-10z"/><ellipse fill="#a8b0c3" fill-opacity=".5" cx="245" cy="85" rx="2" ry="2"/><ellipse fill="#4d5687" fill-opacity=".5" cx="204" cy="96" rx="2" ry="2"/><path stroke="#8fa6c3" stroke-opacity=".5" fill="none" d="M176.7 60.4q29.6 12 65.9 1.4" stroke-width=".5"/><ellipse fill="#afbbce" fill-opacity=".5" cx="143" cy="90" rx="1" ry="1"/><ellipse fill="#103366" fill-opacity=".5" cx="118" cy="73" rx="1" ry="1"/><path fill="#ada79e" fill-opacity=".5" d="M255 0h1v13h-1z"/><path fill="#313646" fill-opacity=".5" d="M127.5 126.9l.5-.9 30.5 19.1-.5.9z"/><path fill="#61abdd" fill-opacity=".5" d="M128 11h84v2h-84z"/><ellipse fill="#5577a2" fill-opacity=".5" cx="117" cy="106" rx="4" ry="4"/><path fill="#161419" fill-opacity=".5" d="M206 98h6v17h-6z"/><path fill="#7881a2" fill-opacity=".5" d="M200.4 84.5l.6-.8 4.6 3.8-.6.8z"/><path fill="#1f1c22" fill-opacity=".5" d="M149.3 91.3l-9.7 19.8-.9-.4 9.7-19.8z"/><path stroke="#445670" stroke-opacity=".5" fill="none" d="M209.8 77.8q-3.5.2-23 2" stroke-width=".5"/><path fill="#14355d" fill-opacity=".5" d="M115.7 81.4l-7 4-.4-.8 7-4z"/><path fill="#6f6981" fill-opacity=".5" d="M209 136l1 3 2-2z"/><path fill="#959bb1" fill-opacity=".5" d="M156 127h2v3h-2z"/><ellipse fill="#55617b" fill-opacity=".5" cx="255" cy="77" rx="12" ry="1"/><ellipse fill="#000010" fill-opacity=".5" cy="79" rx="1" ry="1"/><path fill="#304273" fill-opacity=".5" d="M20 116h16v2H20z"/><path fill="#b5e2f6" fill-opacity=".5" d="M177.6 31l-20.5-5.6-85.2 15.8 93.2-5.8z"/><ellipse fill="#100b0c" fill-opacity=".5" rx="1" ry="1" transform="matrix(-.04013 -.9992 7.1483 -.2871 217.8 132.6)"/><path fill="#3c7cc9" fill-opacity=".5" d="M.4 20l3.2-4.5 64.7-4L2.1 27.2z"/><path fill="#97cdec" fill-opacity=".5" d="M49.1 43l-64.5 32.3 62-38.3L156 17z"/><path fill="#dbeaf5" fill-opacity=".5" d="M22.7 75.5l-8.6-.6 41.7-17.2 68.9 3.3z"/><path fill="#3b415a" fill-opacity=".5" d="M218.7 99.4l19.1-1.4-37.5-1.2 4-4.4z"/><path fill="#5e6789" fill-opacity=".5" d="M158 96l-12-1v-1l12 1z"/><path fill="#13182c" fill-opacity=".5" d="M128.5 106.3l1 9-4 .4-1-9z"/><path stroke="#a1abc8" stroke-opacity=".5" fill="none" d="M223.9 86.5q16.1.6 42.7-6.6" stroke-width=".5"/><ellipse fill="#b8d8fb" fill-opacity=".5" cx="113" cy="88" rx="1" ry="1"/><path fill="#18122a" fill-opacity=".5" d="M236 65h20v1h-20z"/><path stroke="#181823" stroke-opacity=".5" fill="none" d="M58.4 88.4q25-.8 22.7 38.5" stroke-width=".5"/><path fill="#171822" fill-opacity=".5" d="M57.3 135.8l25.4-17.4 17.7 2.8-50.7 8.3z"/><ellipse fill="#13182a" fill-opacity=".5" rx="1" ry="1" transform="rotate(37.3 -91.2 216.3) scale(4.94726 4.06684)"/><ellipse fill="#5571a5" fill-opacity=".5" cx="122" cy="109" rx="3" ry="3"/><ellipse fill="#7676a8" fill-opacity=".5" cx="215" cy="99" rx="1" ry="1"/><ellipse fill="#a2abc8" fill-opacity=".5" cx="210" cy="85" rx="2" ry="2"/><ellipse fill="#43587c" fill-opacity=".5" cx="205" cy="72" rx="11" ry="1"/><path fill="#cbcfdc" fill-opacity=".5" d="M230 30h15v6h-15z"/><path fill="#272e44" fill-opacity=".5" d="M194.5 80.6l-18.3 15-3.9-.3 16.1-12z"/><ellipse fill="#080707" fill-opacity=".5" rx="1" ry="1" transform="matrix(.73703 -5.48897 11.3597 1.52532 65.1 123.3)"/><path fill="#172035" fill-opacity=".5" d="M249 85h7v1h-7z"/><path fill="#5e74a7" fill-opacity=".5" d="M164 121l8-6 3 3z"/><path fill="#31497b" fill-opacity=".5" d="M163 100.2l-9.4 3.4-.6-1.8 9.4-3.4z"/><path fill="#7695bd" fill-opacity=".5" d="M172 90h6v1h-6z"/><ellipse fill="#708cb2" fill-opacity=".5" rx="1" ry="1" transform="matrix(.72452 .82578 -3.36609 2.95336 53.5 95)"/><path fill="#0d1016" fill-opacity=".5" d="M119 88v14h-2V88z"/><ellipse fill="#6799ac" fill-opacity=".5" cx="176" cy="71" rx="2" ry="2"/><path fill="#0a0707" fill-opacity=".5" d="M240.6 107.2l15.6 19.5-3.8-8.7-13.3 4.3z"/><path fill="#2f557e" fill-opacity=".5" d="M168.3 76.6l-.3-1 7.7-2.2.3 1z"/><path fill="#607196" fill-opacity=".5" d="M114 132l-4-5h2z"/><ellipse fill="#1e3a6d" fill-opacity=".5" cx="133" cy="80" rx="9" ry="1"/><path fill="#fffcf8" fill-opacity=".5" d="M231 17.8l21.3-16.1-4.7-14.6L232 14.5z"/><path fill="#2f3f66" fill-opacity=".5" d="M39 90.7l6.7-4.5-18 8.8L61 89z"/><ellipse fill="#617ca8" fill-opacity=".5" cx="126" cy="117" rx="2" ry="2"/><path fill="#1e253e" fill-opacity=".5" d="M17.9 87l.3 1-24 7-.4-1z"/><ellipse fill="#42638d" fill-opacity=".5" cx="119" cy="78" rx="1" ry="1"/><path fill="#84a7c9" fill-opacity=".5" d="M151 103h6v4h-6z"/><path stroke="#5373a8" stroke-opacity=".5" fill="none" d="M.7 106.4q31.9-8.5 44.9-12.8" stroke-width=".5"/><path fill="#8c96ad" fill-opacity=".5" d="M237 56h17v1h-17z"/><path fill="#527eb0" fill-opacity=".5" d="M22.4 78.9l41-8.8.2 1-41 8.8z"/><path fill="#98a6ce" fill-opacity=".5" d="M169 101h3v1h-3z"/><path fill="#30608c" fill-opacity=".5" d="M161.9 68.2l1.6-1.2.6.8-1.6 1.2z"/><ellipse fill="#68697a" fill-opacity=".5" cx="90" cy="116" rx="1" ry="1"/><path fill="#181a2b" fill-opacity=".5" d="M195 135l27 18-55-18z"/><ellipse fill="#8bbfe0" fill-opacity=".5" cx="97" cy="71" rx="12" ry="2"/><path stroke="#97b3ce" stroke-opacity=".5" fill="none" d="M203 60.8q-33.4 24.8-44.6 27.7" stroke-width=".5"/><ellipse fill="#3f517a" fill-opacity=".5" cx="148" cy="127" rx="3" ry="3"/><path fill="#7fa8d5" fill-opacity=".5" d="M98 107h4v2h-4z"/><path stroke="#5c8eb5" stroke-opacity=".5" fill="none" d="M100.8 72.6q-14 4-24.6.2" stroke-width=".5"/><path fill="#3d5e8b" fill-opacity=".5" d="M83.2 88.6l-.1-1 29.7-4.2.1 1z"/><ellipse fill="#aec5f9" fill-opacity=".5" cx="56" cy="91" rx="1" ry="1"/><ellipse fill="#86a0cb" fill-opacity=".5" cx="215" cy="75" rx="3" ry="3"/><path fill="#484959" fill-opacity=".5" d="M82.7 94.5l1.5 2.5-.9.5-1.5-2.5z"/><ellipse fill="#458ed6" fill-opacity=".5" rx="1" ry="1" transform="matrix(.77597 2.93691 -41.1346 10.86823 43.5 22.1)"/><path stroke="#2d2b3d" stroke-opacity=".5" fill="none" d="M195.5 146.3q15.9-23.7 70.8 9.2" stroke-width=".5"/><ellipse fill="#c5def1" fill-opacity=".5" rx="1" ry="1" transform="rotate(172.5 108.4 31) scale(38.04147 1)"/><ellipse fill="#c8def5" fill-opacity=".5" cx="192" cy="68" rx="14" ry="1"/><path stroke="#b2c6dd" stroke-opacity=".5" fill="none" d="M226.8 21q-4-17.9-15.3-15" stroke-width=".5"/><path stroke="#648db9" stroke-opacity=".5" fill="none" d="M160.2 82.9q-42.8-.8-59.9 3.8" stroke-width=".5"/><path fill="#86a1c8" fill-opacity=".5" d="M206 73h11v3h-11z"/><path fill="#8fbddc" fill-opacity=".5" d="M122 66h34v4h-34z"/><path stroke="#2c4574" stroke-opacity=".5" fill="none" d="M-16 103.1q33.6-14.7 49.9-22" stroke-width=".5"/><path fill="#5c647d" fill-opacity=".5" d="M239 81h7v2h-7z"/><path stroke="#647fa1" stroke-opacity=".5" fill="none" d="M104.2 65.3q-50.4 6.3-93.5 13.6" stroke-width=".5"/><path fill="#11315e" fill-opacity=".5" d="M87.4 77.5l-2 3.5-.8-.5 2-3.5z"/><ellipse fill="#add1ea" fill-opacity=".5" cx="180" cy="61" rx="3" ry="3"/><ellipse fill="#274b79" fill-opacity=".5" cx="90" cy="78" rx="2" ry="2"/><ellipse fill="#7c94ba" fill-opacity=".5" cx="172" cy="120" rx="2" ry="2"/><path fill="#0e101d" fill-opacity=".5" d="M190 96h12v2h-12z"/><path fill="#61a9e2" fill-opacity=".5" d="M109.5 9.4L70 21.7l84.3-7.8-24.7 1.2z"/><ellipse fill="#667ca2" fill-opacity=".5" cx="119" cy="123" rx="7" ry="1"/><path stroke="#6587ac" stroke-opacity=".5" fill="none" d="M78.9 95.7q35.7-4.2 38-2" stroke-width=".5"/><ellipse fill="#283245" fill-opacity=".5" rx="1" ry="1" transform="matrix(-.3665 .93042 -4.04713 -1.5942 188.3 113)"/><ellipse fill="#49557f" fill-opacity=".5" cx="86" cy="124" rx="2" ry="2"/><path fill="#264576" fill-opacity=".5" d="M99.6 88.5l15.5-6.5-5.2 3 2.1 1z"/><ellipse fill="#f3f0ef" fill-opacity=".5" rx="1" ry="1" transform="matrix(-10.64869 4.61762 -.92579 -2.13496 243.2 25.4)"/><ellipse fill="#98bae4" fill-opacity=".5" cx="122" cy="87" rx="2" ry="2"/><path fill="#838a8f" fill-opacity=".5" d="M-1 75l1-13-16-18z"/><path fill="#352a2d" fill-opacity=".5" d="M245.6 127.6l2-6.7 4.8 1.5-2 6.7z"/><path stroke="#adc3e2" stroke-opacity=".5" fill="none" d="M271 52.3q-46.3 2-84.6 10.8" stroke-width=".5"/><path fill="#000010" fill-opacity=".5" d="M234.6 76.2l5 .7-.2 1-5-.8z"/><path fill="#68b3df" fill-opacity=".5" d="M72.7 23.6l-72 31L14 40.4l27.2-8.7z"/><ellipse fill="#d3ccdf" fill-opacity=".5" cx="253" cy="61" rx="2" ry="2"/><ellipse fill="#96b7ed" fill-opacity=".5" cx="202" cy="115" rx="1" ry="1"/><ellipse fill="#273a5a" fill-opacity=".5" cx="222" cy="78" rx="4" ry="1"/><ellipse fill="#9acfee" fill-opacity=".5" rx="1" ry="1" transform="matrix(-.08039 -3.83776 39.39939 -.8253 145 25)"/><path fill="#284068" fill-opacity=".5" d="M203 70h6v2h-6z"/><path stroke="#1f2439" stroke-opacity=".5" fill="none" d="M-16 122.4q26-5 62.8-21.8" stroke-width=".5"/><path fill="#4d6d9e" fill-opacity=".5" d="M104 123.8l5.4 2-10.2-2 .8-13.6z"/><path fill="#1b2c50" fill-opacity=".5" d="M40 84h23v2H40z"/><path stroke="#243754" stroke-opacity=".5" fill="none" d="M38.8 118.7Q27.3 101.5 43.4 96" stroke-width=".5"/><path fill="#2a365a" fill-opacity=".5" d="M80 130.8l17.7 1.2 20.6-6.2-32 14.1z"/><path fill="#353b5a" fill-opacity=".5" d="M156 117.3l1.1-1.8 8 8.1 1.2-6.4z"/><ellipse fill="#97bce8" fill-opacity=".5" cx="121" cy="77" rx="15" ry="1"/><path stroke="#536188" stroke-opacity=".5" fill="none" d="M215.7 98.1q-6.8-3.3-15.8 6" stroke-width=".5"/><ellipse fill="#5c7ba9" fill-opacity=".5" rx="1" ry="1" transform="rotate(-10.3 400 -999.6) scale(11.58217 1)"/><path fill="#d4e2ec" fill-opacity=".5" d="M1 66h5v12H1z"/><path fill="#739dca" fill-opacity=".5" d="M114.7 78l5.6-2.2 12.7-4.2-46.5 11.9z"/><path fill="#000719" fill-opacity=".5" d="M156.1 107.7l.8-1.8 1 .4-.8 1.8z"/><path fill="#3a538b" fill-opacity=".5" d="M110.5 105.4l-.1 1-13-1.8.2-1z"/><path fill="#3a4c6c" fill-opacity=".5" d="M155.9 102.8l20.8 2.4-37.1-4.3 7.2 2.5z"/><path fill="#94b3d4" fill-opacity=".5" d="M196 60.8l18.4-7.1-30.8 7.7 12.4-1.6z"/><path fill="#5077af" fill-opacity=".5" d="M.1 89.9l21.4-4.6.8-7.1L42 74.4z"/><path fill="#5d98c5" fill-opacity=".5" d="M121.1 64l-62 11-.2-1 62-11z"/><ellipse fill="#6d7ca9" fill-opacity=".5" cx="204" cy="136" rx="2" ry="2"/><path fill="#dadbe5" fill-opacity=".5" d="M193 18h25v2h-25z"/><ellipse fill="#738fb5" fill-opacity=".5" cx="216" cy="60" rx="11" ry="1"/><path stroke="#506a8c" stroke-opacity=".5" fill="none" d="M269.5 46.4q-23-.7-82.5 8.6" stroke-width=".5"/><ellipse fill="#0a0304" fill-opacity=".5" cx="139" cy="128" rx="3" ry="3"/><ellipse fill="#82c2ea" fill-opacity=".5" rx="1" ry="1" transform="matrix(-.07497 -.99719 71.56865 -5.38087 132.5 22)"/><path fill="#6e7b9b" fill-opacity=".5" d="M235.8 78l-17.3 5-.3-1 17.3-5z"/></g></svg>