<svg xmlns="http://www.w3.org/2000/svg" viewBox="0 0 4032 2584"><filter id="b"><feGaussianBlur stdDeviation="12" /></filter><path fill="#7a8997" d="M0 0h4032v2583H0z"/><g filter="url(#b)" fill-opacity=".5"><path d="M3312.4 1351.8l-1279 1314.9-989.6-1611 1280.5-303.5z"/><path fill="#e0ffff" d="M4276.1-62.1l-164.9 453-4355.3 935L731.4 15z"/><path fill="#38322c" d="M332.9 1562.4l1032 813 2911.2 172.8-4520.2 279z"/><path fill="#91b6f9" d="M-210.9 36.7L-244.1 1838l1032.6-368L2095.1-238z"/><path fill="azure" d="M4061.2 260.7l-1486.3 575L1732.7 291l2295.2-535.2z"/><path fill="#000f24" d="M2406.5 2421.3L1294.1 1407.5 1109.5 1064l1311.4-390.7z"/><path fill="#c6b9b2" d="M3217.8 1447.4l1026.6-238.7 31.7 1333.9-1801.8-370z"/><path d="M2726.1 2482.8l-881-12L3331.5 2827l944.6-338.8z"/><path fill="#5c3d15" d="M4276.1 503.1l-195 757.4-522.7 96.5-686.2-76.5z"/><path fill="#e9efed" d="M1056.6 1357.9L-244 1828.7v-459l1015-318z"/><path fill="#797978" d="M1755.8 1900l-584-635.5-1416 986L2073 2827.1z"/><path fill="#b0c1d1" d="M4276.1 361.8L4032 597.6l-1067.2 635.6-422.6-507.6z"/><path fill="#bde5ff" d="M1620.7 430.2l-992.5 777.6 3648-1266.1-2308.2-106z"/><path fill="#0f2132" d="M2183 2341l982-831.4-369.2-449.9-1825 2.4z"/><path fill="#6b6f75" d="M3851 1525l-385.4 685.2-735.1 209.8 673.5-865z"/><path fill="#6f92ce" d="M1757.5-244.1L674.2 809.7l-730 388.9L-186.4-211z"/><path fill="#d9d9d3" d="M2726.2 2423.5L3532.5 1325l-235.4 192.8-944.2 967.6z"/><path fill="#201200" d="M1584.2 2144.9l423.1-69.7-695.7 300.2-77.6-38.1z"/><path fill="#465b78" d="M1038.5 1393.1l-1282.6 445.3V2501L1392 1589.3z"/><path fill="#e7dfd6" d="M3887.4 2482.2l-1696.6-41.6 2051-78.7 34.3-1483z"/><path fill="#2e2a22" d="M-130.3 2827.1l115.6-269.3L310 2376.3l989.5-460.1z"/><path fill="#c1bbb0" d="M832.8 2154l738.9-465.3L424.9 537.1l959 1106.5z"/><path d="M2182.2 2395l232.8 78.6 1861.1 42.3-2939 311.2z"/><path fill="#e8f8ff" d="M2535.5 831.3l1740.6-629.6-488.4-445.8-1502 849.7z"/><path fill="#2e302d" d="M1745 2089l699.5 738.1-794.7-921.3-985.9-983.1z"/><path fill="#9c8966" d="M1337.5 2827.1l679.6-379.3-170.7-248.4-856 271.2z"/><path fill="#93c1f4" d="M2916.7 36.9L1424.6 693 702.8 581l854-727z"/><path fill="#1a1d1b" d="M2418.5 2081.2l264.6 208.2-290.8-81.3 641.4-564.6z"/><path fill="#293f55" d="M1508.9 1143.3l656.3-460.2 303.2 76.1 648 588.2z"/><path fill="#828c95" d="M673.2 2801l742-639-1348.1-38.8 1076-249.1z"/><path fill="#dbd8d8" d="M3716.1 1274l-988.6 994.7 655-859.6 893.6-98.2z"/><path fill="#c8c5b9" d="M1353.4 1733.6l-173.8 56.1 584.5 332-117.4-132.8z"/><path fill="#ae9a7e" d="M3592.6 1088.3l-278 412-195.4-170.7 527-117.1z"/><path fill="#2b3136" d="M3554.5 853.3L2353.9 1828l-572 871.2 332.2-66.6z"/><path fill="#dad2d8" d="M4276.1 750.3l-465.8 1231.6 153.5-62.3 312.3-599.8z"/><path fill="#f5d6ba" d="M923 957.4l645.5-95-44.1 62.6L867 1077.7z"/><path fill="#c9c9c9" d="M3602 668.9l610.8-199.8-573.5 390.6-410.8 134z"/><path fill="#403e3c" d="M3853.9 2341.7l-1043 45.6 990.6-10.3 110-92.8z"/><path fill="#8292a7" d="M1205.6 1846.7l87.8-148-1355 705.5-120.3 144.2z"/><path fill="#7892ac" d="M2789.2 1108.9l-214.3-296.4L3633.4 484l-100.8 319.3z"/><path fill="#3e3829" d="M1330.1 2669.5l-89.7-130 261.9-34.3 210.6-115.5z"/><path fill="#c4e6ff" d="M1316.2 886L2918-244h1077.7L2277.6 675.4z"/><path fill="#c6c7c0" d="M3253.4 1432.6L2789 1984.7l-300.7 173.1 557-531.3z"/><path fill="#9fa6ac" d="M1280.4 2040.2l435.2 22-604.6 247.4 77.1 392.4z"/><path fill="#505350" d="M2174 2612l253.3-222.2 593.7-591.2-73.7 23.2z"/><path fill="#a7a095" d="M2472.2 645.8l-436 171.9-666.2 77.5 267.3-79.2z"/><path fill="#0e1b29" d="M2691.1 1591.6l-1612-408.3 12.4-64 1012.1 1138z"/><path fill="#ddd8d6" d="M4276.1 1123.6l-395.7 1240.8-155.4 81 461.2 57.5z"/><path fill="#5c5b57" d="M391.5 2272.8l472.7 61.3 679.4-572.6-439 235.3z"/><path fill="#504739" d="M3177.3 1103.2l63.1 186.5 793.8-478.9-493.3 92.6z"/><path fill="#c2b6ac" d="M1140.8 1412.2L709.5 924.1l183.7 115.3 452.6 420.5z"/><path fill="#454c4f" d="M2640.2 1781.5l-448.5 521-119.2-65.8 269.2-249z"/><path fill="#23292f" d="M1414.6 1708.3l-536.5-565 113.1 143.9 672 710.2z"/><path fill="#a3a9ab" d="M3154.5 916.5l292-142.7-416 506.2-116.8-142.5z"/><path fill="#858ea4" d="M4276.1 198.4V349l-376.6 214-411.8-49.8z"/><path fill="#525a60" d="M2890.7 2328.1l-1214.3-816.7 1135 760.6 534.8-581.7z"/><path fill="#9c917a" d="M3679.6 1086.2L4260 985.5l-229.7-42.9-147.4-50.5z"/><path fill="#b2b3ac" d="M2365.4 2468.5l20.8-183.5 466 188.8-166.8-12.9z"/><path fill="#546070" d="M-244.1 1849l208.3 202.4 1183.5-398.8L747 1485.1z"/><path fill="#ada8ac" d="M3903.7 1489.9l134.1 104.5-118-417.7-638.2 1055.5z"/><path fill="#c9b491" d="M1514.5 2678.7l393.1-255.4-75.6 156.8-92.3 247z"/><path fill="#808281" d="M1511.5 1801.4l321.8 234.3-21.5-123.4-625.3-537.9z"/><path fill="#1c160c" d="M126.8 2451.9l72.4-23.3 209.5 398.5h-617.8z"/><path fill="#0a0d0b" d="M2288.8 2517l-786.1 138.3L3607.4 2827l668.7-333.5z"/><path fill="#201b0e" d="M1431.3 2215.8l-207 127.6 21 26 540.8-223.3z"/><path fill="#dddbcc" d="M1164.5 1861.9l186.2-2.2 67.4-21.7-86.6-158z"/><path fill="#111617" d="M2420.6 2188.3l219.3-193-358.5 235.3 446.4 9.6z"/><path fill="#647185" d="M-2 2287.7l195.8-504 562.6 16L343 2231.5z"/><path fill="#182939" d="M978.6 1065l203.4 219.5 1476 508.2 45-587.5z"/><path fill="#5a5e63" d="M3035.4 2296.7l719-157.2-715.8 96.7 319.2-386.5z"/><path fill="#5d5962" d="M3995.8 2005.5l-88 44.2-364.1 22 407-1z"/><path fill="#233649" d="M2725.5 1735l538.6-282.2-995.8-791.1 18.6 553.2z"/><path fill="#494338" d="M3659 1118.7l239.2-52.2 378-129v369.3z"/><path fill="#e2e1e5" d="M3119.2 1699.8l128.7 42.8 300.4-382.6-403 296z"/><path fill="#6f614d" d="M4276.1 1187.2L3844 1306.3l-499.7-107 97 190.6z"/><path fill="#bdcfe1" d="M1046.1 1376.1l-297.8 111.3-485.8-285.2L670 958.4z"/><path fill="#8fb1dc" d="M1520.7-244.1l-1764.8 1585L992.5 738.8l985-983z"/><path fill="#a7c6e4" d="M104 1352.3l622.5-203 1333.6-986.5L-244 1410.7z"/><path fill="#575558" d="M3778.2 1952.8l93.5-223 7.2-1.8-445.4 1099.1z"/><path fill="#6e6b6c" d="M4064.8 1035.2l-691.6 1347.5 22 444.4-23.2-392z"/><path fill="#ece4e3" d="M4184 1040.2l92.1 247.2-942.4 136.2 942.4-191.1z"/><path fill="#cfd1d5" d="M3653 717.5l613.4-176.1-184.2-41.7L3638.4 661z"/><path fill="#69727f" d="M1256.8 2827.1l-115.7-444.3-544.6-66.5L222 2827.1z"/><path fill="#6987c0" d="M227.5 325.4L625-108.5-244.1 53.1l59.8 572.3z"/><path fill="#857b6a" d="M3489.8 1032.4l394.8-302-231.6 47.7-44 273.3z"/><path fill="#8a795d" d="M1712.4 2186.4l-456.8 199L2045 2411l-210.4-203.5z"/><path fill="#2a3d52" d="M2516.7 827.5l-243.6-95.4-578.7 178.3 857.6 142.1z"/><path fill="#57544e" d="M1046.3 1917.4l36.4 130.5 361.2-37.2-495.8-66.2z"/><path fill="#c2b9a3" d="M990 2009.3l40.4 133.6 73.1-286.5 199.8-103.8z"/><path fill="#d0cbcb" d="M4000 2239.6l-537.2-51.5 533.4-28.1 130.2-557z"/><path fill="#777b82" d="M3518 1429l-570.8 718.6 531.3-590.8 137.6-222.2z"/><path fill="#5f5f62" d="M3536 1761.3l154.6-220.4-486.8 802.6-195.4 291.3z"/><path fill="#5e5b60" d="M3875.3 2257.2l87.9-66.3-242.1 74.2-74.5-14.4z"/><path fill="#6d685e" d="M2955.2 1839.8l326.7-336.6 109-397.5 221.5-40.4z"/><path fill="#c8c7c0" d="M2580.2 2113.3l-172.9 104 277.8-116 502.5-576z"/><path fill="#ddf2f9" d="M2529.4 815.3L4164.6 19 1795.8 643.3l552.6 28.6z"/><path fill="#92989c" d="M1659.6 2120.7l13.7 19-752.9 189.4 672.8-418.7z"/><path fill="#181d1b" d="M2222 2554.4l-424.2-466.8-319.2-291 723.5 772.6z"/><path fill="#686c6c" d="M2006.3 2145.8l-150.8-13.9-69.8-37-419.8-525.5z"/><path fill="#4c4d4b" d="M3902.4 2349.8l-1220.3 41.9 329-49-143.6 19.3z"/><path fill="#9b8970" d="M3581.4 1323.4l-386.2-17.5-110.5 12 184.6 102.1z"/><path fill="#3d3c3a" d="M767.6 2242.5l-125.2-96L257.3 2827 364 2273.7z"/><path fill="#d3d0cb" d="M3333.2 1382.7l-486.3 531-259.8 203 528-533.8z"/><path fill="#a1a5a5" d="M2661.7 2309L2408 2452.4l255-292 470.7-493.8z"/><path fill="#0b1114" d="M2339.8 2288.6l156.7-230-31.3 29.6 442.3-350.3z"/><path fill="#d2cfd7" d="M3896.8 1527.4l379.3-278v142.3l-586 108.5z"/><path fill="#3b3329" d="M3494.7 1031.1l-96.4 153.3-51-169L3626.2 906z"/><path fill="#202022" d="M1948.1 2455.2l-100.7 86 351.6 286 104-534z"/><path fill="#cdd1cd" d="M2447.8 2464.4l-30.9-49.7 92.2-12.2 249.9 57z"/><path fill="#add5f9" d="M2261.4 12.3L1190.4 867l1269.5-556.6L3490.6-222z"/><path fill="#6e6b70" d="M3969.8 2075.1l-117.2 353.5 80.1-362.6-876.5-28.5z"/><path fill="#a3a3a6" d="M3467.8 1806.5l-457.7 594.4 471.2-714.2 438.7-517.9z"/><path fill="#9b9d9a" d="M2422.2 715.4L2206.5 661l-623.2 255 617.3-161z"/><path fill="#c9c8c8" d="M3637 2289.6l-204.2 68 62.7-145.4 160-46.3z"/><path fill="#c8c5c7" d="M4276.1 2090.5l-1056.8 2 813.4 47.6-348.6 76.4z"/><path fill="#cbc6c8" d="M3582 2030l323.1 20 256-70.3-302.8 14.8z"/><path fill="#809ed0" d="M-244.1 1041.4l687.6-233 704.1-1052.5-574 355.6z"/><path fill="#3c4954" d="M1425.8 877.5l-94 54.4 120.4-43.4 1063.3 402.2z"/><path fill="#e1d4c6" d="M975 1082.6l257.3-75.7 234-94.4-670 110.2z"/><path fill="#24323d" d="M1678 901l730.8-189.4-1172.2 575.1L982 1094.3z"/><path fill="#717078" d="M3563.7 1966.8l-350 52 1047-90.7-609 85.3z"/><path fill="#dddadb" d="M3656.1 1376.4l575.3-120.8-912.2 209.2-17.3-62.6z"/><path fill="#65696f" d="M769 2293.5l-336.9-91.2 322 248.8 732-535.4z"/><path fill="#111e2c" d="M2098.8 2178.6L1828 1971.5l-693.8-788.7 1538 547.6z"/><path fill="#bbb9b5" d="M3372.5 2391l-965.4.2 670 71.4 1199 32.8z"/><path fill="#877d6a" d="M4276.1 908.9l-809.6 138 803.5-238-1173 556.6z"/><path fill="#bdbdb6" d="M2473.3 2450l20.7-218.4-137.3 104.9 533-132.7z"/><path fill="#697c92" d="M827.4 1861l345.7-391 179 248.9-797 148.5z"/><path fill="#696971" d="M3594.5 1908.6l-25.6 62.4-395.8 55.6 633-113.3z"/><path fill="#1e201f" d="M1208.8 1502l383.5 374-141.8-85.2-175-281z"/><path fill="#a5abb2" d="M3378.3 2342.1l-116.9-102.4 331.3-111.6-295.1 29.5z"/><path fill="#6c696c" d="M3632.4 2256.8l177.3-358.7-138.8 328-46.6 157.1z"/><path fill="#6e6b72" d="M3550.4 2164.2l725.7-58.4-498.6 68.4-58.5-33.8z"/><path fill="#79767b" d="M4276.1 32l-252.6 1381.3-424.6 984.5L4276 733.5z"/><path fill="#4e5560" d="M902.3 1751.8l-295.6 58-850.8 316.4 831.4-384.4z"/><path fill="#b2bac1" d="M3617.3 898.8l121.5-404.6-342 494.3-171.8-83.9z"/><path fill="#a2947a" d="M1761.8 2364.6l-86.3-8.2 135.6-184.8 88.4 108z"/><path fill="#605f63" d="M3571.7 1970.9l-206.5-14 235 25.9-190.5 345.6z"/><path fill="#bcb3ab" d="M800.2 1066l111.3-73.5 461.5 554.2-470-400.2z"/><path fill="#52585b" d="M2895.3 2205.9l-962.2 58.8 1158.4-73.6 173.6 83.2z"/><path fill="#4b4f51" d="M2705.1 2788.8l225.9-321.2 82.4-166.8 203.8-247.2z"/><path fill="#4b5052" d="M2613 2192.3l277-313.7-204.8 279.6-688.5 539.3z"/><path fill="#766f60" d="M859.3 2002.3l242.2-152.6-40.7 90.1L510 2318.3z"/><path fill="#cecbcb" d="M4024 1911.4L3884.4 2433l-680.4 28 1072.1 24.3z"/><path fill="#726b57" d="M3623.7 2558l133 269.1 64.8-388.1 21.5 263.3z"/><path fill="#35332a" d="M1460.1 2502.4L849.4 2730l654.2 97-129.8-319.3z"/><path fill="#9ea3a2" d="M1299.8 2406l-76 12 8.8 392.8-72.6-499.2z"/><path fill="#4d5558" d="M2031.1 2240.8l472.1-350.4-399 369-611.3-655.5z"/><path fill="#605547" d="M3859.2 706.5l417-197.3L4003.7 881l-141.5-13.2z"/><path fill="#555e65" d="M2840 1709.7l-93.8 121.4 37.4-41-68.4-67.6z"/><path fill="#6d7276" d="M1201 2389.2l-91-144.4-559.8 142.4 837.6-187.8z"/><path fill="#747471" d="M3125.3 1632.5l655.9-696.8L2822.5 1984l64.2-110.7z"/><path fill="#9c9b8d" d="M899.2 2072.5l-60.5 82-36.7-37.6-191.2-9.8z"/><path fill="#152331" d="M1618.7 973.5l-582 86 18.6 91.9 139.8 61.7z"/><path fill="#d4d3d5" d="M3227.1 1467.1L2976 1704l493.5-304.1-283.7 403.6z"/><path fill="#524b3f" d="M3138.9 1112.3l216.8-118.8-374.7 384.3 527.3-215.7z"/><path fill="#6f6872" d="M4020 1843.2l-75.5 203.3 331.6-631.2V985z"/><path fill="#a6b0b6" d="M2890.8 1100l895.8-380.8-411.2 202-362 316.1z"/><path fill="#0c1010" d="M2854.3 1747.3l251.2-213-143.2 154.5-560.6 527z"/><path fill="#b6b6bb" d="M4114.6 1834.3l-657.5 207.3-62.9-29.7 362.2-71.5z"/><path fill="#ccc7cc" d="M4075.4 1558.6l-278.2 383.2 176.2 23 96.9-406.1z"/><path fill="#5c5b64" d="M3823.3 2055.3l-266.1 40.4 86.2-29.7 403.2-2z"/><path fill="#28210d" d="M1881.6 2152.8l-164 56.4-155.7-25.2 23.1-6z"/><path fill="#94aac1" d="M2760.6 997.9l873-319-688.3 190.4-25.5 300.1z"/><path fill="#a3a8ab" d="M2972.8 1879.6l-441.5 427.2 1030.5-124-867.2 58.7z"/><path fill="#d8d2c1" d="M1105.9 1882.4l320.6-55.5-33.3-98-6.8-14.3z"/><path fill="#878274" d="M439.8 2297.9l-250.6 92.3-111.3 44 209.5-34z"/><path fill="#c4c4c5" d="M3782 2260.7l-337.8 225 275.3-157.8 153-32.2z"/><path fill="#2b3132" d="M3377 1097.2L2905.9 1295l-232.2-315.5 345 331.9z"/><path fill="#8d8c8b" d="M1121 1315.2l474.3 566.5 26-21 30.7-93.2z"/><path fill="#88847c" d="M1477.7 2093.8l-108.7-165 177.4-82.2-432.8 13z"/><path fill="#2f3338" d="M1075.6 1389l-223.5-289 992.3 1067.7-529.6-542.6z"/><path fill="#606367" d="M3126.1 2155.6L2836 2626.3l739-1134-79.4 180.4z"/><path fill="#72747a" d="M3312.7 2204.4l-89.4-181.7 399.9 158.5-732.8-91.5z"/><path fill="#cad4e1" d="M1039.2 1338l-93 64.8-564.3 41.6 440.9-308.2z"/><path fill="#213347" d="M2646.2 912.3l522.6 573.8-481.2-25.7-726.3-194.6z"/><path fill="#565a5b" d="M2902.5 2279l-171.7 235.3 163-277.4 210.9-259.5z"/><path fill="#cfebf9" d="M3050.8 75.8L2760.7 542 1961 741l-372.4 103.3z"/><path fill="#7a889f" d="M797 1967l74.4 4.2L325 2301.8l-425.6 146.6z"/><path fill="#9b9e9f" d="M1045.4 2448.5l-12.2-56.7-56.6 73.8 329.4 74.6z"/><path fill="#a2acb6" d="M3545.8 459.7l-379.9 139 593.5-16.6 86.7 239.7z"/><path fill="#2c2b2a" d="M499.2 2270.2L60.4 2673l-30.3-126.7L645 2343.5z"/><path fill="#9da6ab" d="M1358.5 2124l329.7 3.7 14.4-94.1-69.8-31.9z"/><path fill="#d7d1c8" d="M1729.4 792l-373.5 131.8-554.5 184.7 884.2-221z"/><path fill="#9cc7f2" d="M2693.8-244.1h-604.7l-655 764 494-148.3z"/><path fill="#454646" d="M444.2 2714.2L619 2239.6l544.2-71.2-540.1-15.5z"/><path fill="#65727b" d="M2336.2 688.8l-516.1 101.7 531.7-135.7-172.2 495.2z"/><path fill="#566579" d="M1439.2 1567.9l-902.3 394.6-276.6 149.1 365-69.2z"/><path fill="#8b887f" d="M3614.5 2496.3l53.3 330.8-11-240.4-215.1-455.6z"/><path fill="#a6a9ae" d="M3688.9 2051.1l-758.6 134.5 577.5-138.2 302-28z"/><path fill="#93989d" d="M1186 2045l2.7 300-8.1-66.1 232.7-114.5z"/><path fill="#181e1f" d="M2351.8 2129.2l284 97.7-382.4-23.9 167.8 3.5z"/><path fill="#788da3" d="M3702 590.5l51.2 2-1072 342.7-165.3-92.9z"/><path fill="#4c5e71" d="M510 1583.3l635.6-231.8L-244 1983.6l25.7-148.2z"/><path fill="#9b9ca2" d="M3490.7 1502.4l775.4-264.8-583.4 217.8-463.1 443.2z"/><path fill="#323b41" d="M3008.7 1405l-865.5 836.5 223.5 96.7-14.7-103.6z"/><path fill="#b5b5bb" d="M3294 1988.9l228.7-74 360.1 37-450.4-1.5z"/><path fill="#172839" d="M2411.4 1326l-663.9-298.3 666.9 916 536.4-459.8z"/><path fill="#9d9486" d="M3133 1352.4l164 153-91 19.8 165.5-158.3z"/><path fill="#e0e5ea" d="M3946 555.2l330.1-232.5-203.9 223.5-98.9 25.5z"/></g></svg>