<svg xmlns="http://www.w3.org/2000/svg" viewBox="0 0 4032 2584"><filter id="b"><feGaussianBlur stdDeviation="12" /></filter><path fill="#7a8997" d="M0 0h4032v2583H0z"/><g filter="url(#b)" fill-opacity=".5"><path d="M1013 1064.7l1098.2 1577.2 1109.6-1238.1-819.4-688.5z"/><path fill="#e1ffff" d="M-244.1 1301.3l4262.6-870.1 88.8-675.3-3342 274.4z"/><path d="M1611.3 2827.1L4276 2578l-249.6-85.4-2097.5-24.4z"/><path fill="#edffff" d="M1694 597.1l1008.2 221 1574-690.2-1418.8-372z"/><path fill="#92b8f9" d="M-117.7-52.9l2064 48.6L813.3 1492-244 1785.9z"/><path fill="#5d5a56" d="M1215.2 1298.4l-1459.3 559.4 302 969.3 2176.5-402z"/><path fill="#02172b" d="M2325 674.8l-1117.2 402.7 970.3 1564.3 918.7-1304.4z"/><path fill="#c5b7af" d="M3077.6 1596.4L2454.2 2173l1791.4 374-58.3-1438.7z"/><path fill="#593b14" d="M4276.1 488.8l-1437.3 816 724 41 713.3-107.3z"/><path fill="#e4eaeb" d="M723.3 1002.1l349 376.8-1252.5 418.5-64-395.5z"/><path fill="#adbccc" d="M4175.6 468.2l-1070 111.7-348.3 603.8 935.3-327.4z"/><path fill="#969a9a" d="M1335.2 2271l-438-217.8 353.2-694 609.5 643.1z"/><path d="M2335 2491.2l-883 155.2 2574.7 77.4 117.8-254z"/><path fill="#211a0e" d="M905.8 2078.8l-535.2 279.5-531.5 206 276.6 223.6z"/><path fill="#b7e0ff" d="M1732.8 831.5L3611.6 43.1 2254.4-244.1l-1621 1447.4z"/><path fill="#6f93ce" d="M-244.1-244.1l1969.3 76.6-928.4 852.7-1041 699z"/><path fill="#676d73" d="M3574.7 2178.2l-42.3-721.5-347.1 362.5-453.4 611.5z"/><path fill="#d8d8d4" d="M2734.5 2342.1l894.8-1010.4-277.8 78.4-954 1104.6z"/><path fill="#ccc6c4" d="M2647.7 2455l1093.3-92 327-1162 89.3 1307.8z"/><path fill="#081624" d="M962.6 1076.8l427.4-81.5L2571 1718l-413.1 496z"/><path fill="#0f1212" d="M1537.4 1869.4l-756.7-821.2 500 500 927.7 999.6z"/><path fill="#e7f9ff" d="M3917.6-244.1l-1726.5 764 354.7 296.6 1730.3-602.2z"/><path fill="#291e09" d="M1775.7 2175.3l-692.2 252.5 391.4-230.3 444.5-143.2z"/><path fill="#e6e1d0" d="M1016.7 1860.9l507.9 15.4-37.3 93.6-98.6-247.1z"/><path fill="#c8b6a4" d="M860.3 940.7L887 1157l671.8 578.5-191.7-250.6z"/><path fill="#8ea1b3" d="M2492.9 829.8l1208-403.9 554.2-193.5-1235 1025z"/><path fill="#9b835b" d="M983.3 2475.8l847.4-280 201 147.6-269.5 323.1z"/><path fill="#4c617f" d="M2.8 1752.8l-217 737.8L1237 1665l-494.7-193z"/><path fill="#252420" d="M1798.7 2827.1l1829-1964.3-559.3 374.5L3133 1522z"/><path fill="#b8b5a9" d="M2432.5 2460.7l-131.8 5.8 77-207.6 849.6 205.8z"/><path fill="#31465c" d="M1702 1055.5l1305.9 179.1-389-346.1-332-243.3z"/><path fill="#444948" d="M2971.7 1802.4l82.9-59.2-588.2 620.5-209.4 155.7z"/><path fill="#c2c4c4" d="M4276.1 461.7l-1313.3 748.7-42.1-85.2L4276 345.4z"/><path fill="#94c2f4" d="M1887.2 516.6l1421.5-743-1941-17.7L937.3 714z"/><path fill="#54524d" d="M746.1 2329.6l-474.4.1L1371 1881.8l-272.4 274z"/><path fill="#e7e3e4" d="M4276.1 1282.7l-610.3 49-737 572.3 498.2-483z"/><path fill="#868f98" d="M1146.8 2721.3l-217.1-872.7-560 352.2 1025.6-182.6z"/><path fill="#e6d1bb" d="M1086.4 895L689 1124.4l572.2-112.7 301-87.8z"/><path fill="#d8d4ca" d="M2556.5 2158l248.8-306.3 571.5-508.8-491.4 537.4z"/><path fill="#060803" d="M4140.3 2546.2l-1370.5-72-547.2-9.3 304.5 231.6z"/><path fill="#484947" d="M3827 2339.9l-1204.5 32.8 1071.3 14.3 190.6-37.5z"/><path fill="#3c403d" d="M2089.7 2416.3l-663.6-645.1 560.5 309.7 611.5 124.8z"/><path fill="#998a72" d="M3217.3 1411.8l641.3-349.4L4276 938.7 3883.8 908z"/><path fill="#9d958b" d="M1963.5 736L1601 896l578-123.2 239-79.8z"/><path fill="#2d3b49" d="M2462 894.1l245.4 778-774.6 677.9 1360.1-935.1z"/><path fill="#433a27" d="M1531.4 2510.2l141.4-64.4-385.7 86.4-161.9 295z"/><path fill="#6c6971" d="M4158.6 1552.2L3898.4 2263l-259.1-16 207-4.6z"/><path fill="#9b8569" d="M3312.2 1287.8l-170.2 13.6 33.5 149.6 616-121.9z"/><path fill="#caebff" d="M1167.6 937.3L3566.2-244.1l-656 784.3-1884.7 391.6z"/><path fill="#dfdcda" d="M4276.1 1028.7V2466l-396.2 16 67.6-316.2z"/></g></svg>